<svg width="64" height="50" viewBox="0 0 64 50" fill="none" xmlns="http://www.w3.org/2000/svg">
<path fill-rule="evenodd" clip-rule="evenodd" d="M3.50667 0C1.57 0 0 1.57 0 3.50667C0 5.44333 1.57 7.01333 3.50667 7.01333H59.6133C61.5501 7.01333 63.12 5.44333 63.12 3.50667C63.12 1.57 61.5501 0 59.6133 0H3.50667ZM14.0267 24.5467C14.0267 22.6099 15.5967 21.04 17.5333 21.04H59.6133C61.5501 21.04 63.12 22.6099 63.12 24.5467C63.12 26.4834 61.5501 28.0533 59.6133 28.0533H17.5333C15.5967 28.0533 14.0267 26.4834 14.0267 24.5467ZM35.0667 45.5867C35.0667 43.6499 36.6366 42.08 38.5733 42.08H59.6133C61.5501 42.08 63.12 43.6499 63.12 45.5867C63.12 47.5234 61.5501 49.0933 59.6133 49.0933H38.5733C36.6366 49.0933 35.0667 47.5234 35.0667 45.5867Z" fill="black"/>
</svg>
